<?xml version="1.0" encoding="UTF-8" standalone="no"?>
<!-- Generator: Adobe Illustrator 15.1.0, SVG Export Plug-In . SVG Version: 6.00 Build 0)  -->

<svg
   xmlns:dc="http://purl.org/dc/elements/1.1/"
   xmlns:cc="http://creativecommons.org/ns#"
   xmlns:rdf="http://www.w3.org/1999/02/22-rdf-syntax-ns#"
   xmlns:svg="http://www.w3.org/2000/svg"
   xmlns="http://www.w3.org/2000/svg"
   xmlns:xlink="http://www.w3.org/1999/xlink"
   xmlns:sodipodi="http://sodipodi.sourceforge.net/DTD/sodipodi-0.dtd"
   xmlns:inkscape="http://www.inkscape.org/namespaces/inkscape"
   version="1.1"
   id="Layer_1"
   x="0px"
   y="0px"
   width="200.73599"
   height="242.255"
   viewBox="-221.105 -180.079 200.73599 242.255"
   enable-background="new -221.105 -180.079 588 475"
   xml:space="preserve"
   inkscape:version="0.48.2 r9819"
   sodipodi:docname="export_xls.svg"><metadata
   id="metadata51"><rdf:RDF><cc:Work
       rdf:about=""><dc:format>image/svg+xml</dc:format><dc:type
         rdf:resource="http://purl.org/dc/dcmitype/StillImage" /></cc:Work></rdf:RDF></metadata><defs
   id="defs49" /><sodipodi:namedview
   pagecolor="#ffffff"
   bordercolor="#666666"
   borderopacity="1"
   objecttolerance="10"
   gridtolerance="10"
   guidetolerance="10"
   inkscape:pageopacity="0"
   inkscape:pageshadow="2"
   inkscape:window-width="640"
   inkscape:window-height="480"
   id="namedview47"
   showgrid="false"
   fit-margin-top="0"
   fit-margin-left="0"
   fit-margin-right="0"
   fit-margin-bottom="0"
   inkscape:zoom="0.49684211"
   inkscape:cx="101.021"
   inkscape:cy="121.573"
   inkscape:window-x="0"
   inkscape:window-y="0"
   inkscape:window-maximized="0"
   inkscape:current-layer="Layer_1" />
<g
   id="g3"
   transform="translate(-192.979,-116.818)">
	<g
   id="g5">
		<path
   d="m 131.128,-9.684 h 29.481 c 2.245,0 4.295,-0.087 6.104,-0.23 -2.05,-2.47 -4.561,-5.274 -7.491,-8.199 l -31.514,-31.514 c -2.925,-2.931 -8.199,-7.497 -8.199,-7.497 0,0 -0.23,3.858 -0.23,6.104 v 29.48 c 0,6.542 5.308,11.856 11.849,11.856 z"
   id="path7"
   inkscape:connector-curvature="0"
   style="fill:#82af3a" />
		<path
   d="m 160.61,-6.735 h -29.481 c -8.159,0 -14.798,-6.64 -14.798,-14.805 v -29.48 c 0,-2.309 0.236,-6.276 0.236,-6.276 l 0.352,-5.965 4.52,3.909 c 0.219,0.19 5.39,4.67 8.354,7.641 l 31.514,31.514 c 2.718,2.713 5.298,5.539 7.676,8.401 l 3.627,4.37 -5.66,0.455 c -1.878,0.149 -4.008,0.236 -6.34,0.236 z"
   id="path9"
   inkscape:connector-curvature="0"
   style="fill:#82af3a" />
	</g>
	<g
   id="g11">
		<path
   d="m 160.61,2.045 h -29.481 c -12.973,0 -23.585,-10.606 -23.585,-23.585 v -29.48 c 0,-4.33 0.312,-8.349 0.83,-11.844 H 86.908 -16.276 c -6.541,0 -11.85,5.314 -11.85,11.844 v 218.158 c 0,6.541 5.309,11.856 11.85,11.856 H 160.61 c 6.535,0 11.85,-5.315 11.85,-11.856 V 22.682 1.216 c -3.502,0.518 -7.52,0.829 -11.85,0.829 z"
   id="path13"
   inkscape:connector-curvature="0"
   style="fill:#ffffff" />
		<path
   d="m 98.746,-54.021 c -0.028,0.99 -0.046,1.992 -0.046,3 v 29.48 c 0,17.885 14.551,32.43 32.429,32.43 h 29.481 c 1.008,0 2.01,-0.012 3.006,-0.046 v 11.838 144.456 c 0,1.658 -1.348,3.012 -3.006,3.012 H -16.276 c -1.658,0 -3.005,-1.354 -3.005,-3.012 V -51.021 c 0,-1.658 1.347,-3 3.005,-3 H 86.908 98.746 m 9.628,-8.843 H 86.908 -16.276 c -6.541,0 -11.85,5.314 -11.85,11.844 v 218.158 c 0,6.541 5.309,11.856 11.85,11.856 H 160.61 c 6.535,0 11.85,-5.315 11.85,-11.856 V 22.682 1.216 c -3.501,0.519 -7.52,0.829 -11.85,0.829 h -29.481 c -12.973,0 -23.585,-10.606 -23.585,-23.585 v -29.48 c -10e-4,-4.331 0.311,-8.349 0.83,-11.844 l 0,0 z"
   id="path15"
   inkscape:connector-curvature="0"
   style="fill:#8dc63f" />
	</g>
	<g
   id="g17">
		<defs
   id="defs19">
			<path
   id="SVGID_1_"
   d="m 160.61,2.045 h -29.481 c -12.973,0 -23.585,-10.606 -23.585,-23.585 v -29.48 c 0,-4.33 0.312,-8.349 0.83,-11.844 H 86.908 -16.276 c -6.541,0 -11.85,5.314 -11.85,11.844 v 218.158 c 0,6.541 5.309,11.856 11.85,11.856 H 160.61 c 6.535,0 11.85,-5.315 11.85,-11.856 V 22.682 1.216 c -3.502,0.518 -7.52,0.829 -11.85,0.829 z"
   inkscape:connector-curvature="0" />
		</defs>
		<clipPath
   id="SVGID_2_">
			<use
   xlink:href="#SVGID_1_"
   overflow="visible"
   id="use23"
   style="overflow:visible"
   x="0"
   y="0"
   width="588"
   height="475" />
		</clipPath>
		<g
   clip-path="url(#SVGID_2_)"
   id="g25">
			<rect
   x="-28.125"
   y="-62.863998"
   width="232.89799"
   height="77.380997"
   id="rect27"
   style="fill:#8dc63f" />
			<path
   d="M 207.721,17.465 H -31.074 V -65.812 H 207.721 V 17.465 z M -25.177,11.569 H 201.826 V -59.917 H -25.177 v 71.486 z"
   id="path29"
   inkscape:connector-curvature="0"
   style="fill:#8dc63f" />
		</g>
	</g>
	<g
   id="g31">
		<path
   d="m -3.188,-39.885 h 9.201 l 7.077,11.528 7.33,-11.528 h 8.694 L 17.542,-22.646 30.127,-3.788 H 20.673 L 12.784,-16.276 4.747,-3.788 H -4.15 L 8.438,-22.696 -3.188,-39.885 z"
   id="path33"
   inkscape:connector-curvature="0"
   style="fill:#ffffff" />
		<path
   d="m 41.247,-39.885 v 29.424 h 17.597 v 6.673 H 33.312 v -36.097 h 7.935 z"
   id="path35"
   inkscape:connector-curvature="0"
   style="fill:#ffffff" />
		<path
   d="m 69.351,-12.684 c 0.438,0.841 1.02,1.526 1.745,2.044 0.726,0.523 1.577,0.91 2.557,1.163 0.973,0.253 1.986,0.38 3.028,0.38 0.708,0 1.468,-0.058 2.28,-0.178 0.806,-0.115 1.566,-0.346 2.274,-0.68 0.708,-0.34 1.296,-0.801 1.768,-1.394 0.472,-0.587 0.708,-1.336 0.708,-2.246 0,-0.979 -0.311,-1.773 -0.938,-2.378 -0.622,-0.604 -1.439,-1.111 -2.447,-1.514 -1.013,-0.409 -2.159,-0.761 -3.438,-1.065 -1.284,-0.3 -2.579,-0.64 -3.892,-1.008 -1.354,-0.34 -2.666,-0.749 -3.944,-1.238 -1.284,-0.489 -2.431,-1.122 -3.438,-1.899 -1.014,-0.772 -1.831,-1.745 -2.453,-2.902 -0.628,-1.163 -0.938,-2.574 -0.938,-4.227 0,-1.849 0.396,-3.461 1.191,-4.825 0.789,-1.364 1.825,-2.505 3.109,-3.415 1.278,-0.909 2.729,-1.583 4.348,-2.021 1.619,-0.438 3.235,-0.656 4.854,-0.656 1.883,0 3.697,0.213 5.43,0.634 1.739,0.42 3.282,1.105 4.63,2.043 1.348,0.945 2.418,2.148 3.207,3.616 0.795,1.469 1.192,3.248 1.192,5.332 h -7.688 c -0.069,-1.076 -0.293,-1.969 -0.68,-2.677 -0.391,-0.709 -0.903,-1.262 -1.543,-1.67 -0.639,-0.403 -1.376,-0.691 -2.199,-0.858 -0.829,-0.167 -1.728,-0.253 -2.706,-0.253 -0.64,0 -1.278,0.068 -1.918,0.201 -0.645,0.139 -1.227,0.374 -1.744,0.708 -0.524,0.34 -0.956,0.761 -1.29,1.267 -0.34,0.501 -0.507,1.146 -0.507,1.918 0,0.708 0.133,1.284 0.403,1.722 0.27,0.438 0.8,0.841 1.595,1.215 0.789,0.368 1.883,0.737 3.282,1.111 1.399,0.368 3.23,0.841 5.487,1.416 0.674,0.133 1.606,0.374 2.804,0.731 1.198,0.352 2.384,0.916 3.564,1.693 1.18,0.777 2.199,1.813 3.058,3.109 0.863,1.295 1.29,2.959 1.29,4.98 0,1.652 -0.316,3.184 -0.956,4.601 -0.645,1.41 -1.595,2.637 -2.861,3.662 -1.262,1.03 -2.827,1.831 -4.699,2.401 -1.871,0.575 -4.036,0.857 -6.495,0.857 -1.992,0 -3.921,-0.242 -5.792,-0.731 -1.866,-0.489 -3.519,-1.255 -4.952,-2.298 -1.434,-1.047 -2.568,-2.377 -3.414,-3.995 -0.841,-1.618 -1.244,-3.536 -1.209,-5.765 h 7.681 c 0,1.218 0.219,2.249 0.656,3.089 z"
   id="path37"
   inkscape:connector-curvature="0"
   style="fill:#ffffff" />
	</g>
	<rect
   x="7.395"
   y="98.824997"
   width="22.732"
   height="42.212002"
   id="rect39"
   style="fill:#d1d3d4" />
	<rect
   x="42.806999"
   y="78.638"
   width="22.732"
   height="62.398998"
   id="rect41"
   style="fill:#d1d3d4" />
	<rect
   x="78.218002"
   y="60.949001"
   width="22.732"
   height="80.087997"
   id="rect43"
   style="fill:#d1d3d4" />
	<rect
   x="113.619"
   y="46.209"
   width="22.732"
   height="94.828003"
   id="rect45"
   style="fill:#d1d3d4" />
</g>
</svg>