<?xml version="1.0" encoding="UTF-8" standalone="no"?>
<!-- Generator: Adobe Illustrator 15.1.0, SVG Export Plug-In . SVG Version: 6.00 Build 0)  -->

<svg
   xmlns:dc="http://purl.org/dc/elements/1.1/"
   xmlns:cc="http://creativecommons.org/ns#"
   xmlns:rdf="http://www.w3.org/1999/02/22-rdf-syntax-ns#"
   xmlns:svg="http://www.w3.org/2000/svg"
   xmlns="http://www.w3.org/2000/svg"
   xmlns:xlink="http://www.w3.org/1999/xlink"
   xmlns:sodipodi="http://sodipodi.sourceforge.net/DTD/sodipodi-0.dtd"
   xmlns:inkscape="http://www.inkscape.org/namespaces/inkscape"
   version="1.1"
   id="Layer_1"
   x="0px"
   y="0px"
   width="200.73599"
   height="242.255"
   viewBox="-221.105 -180.079 200.73599 242.255"
   enable-background="new -221.105 -180.079 588 475"
   xml:space="preserve"
   inkscape:version="0.48.2 r9819"
   sodipodi:docname="export_csv.svg"><metadata
   id="metadata53"><rdf:RDF><cc:Work
       rdf:about=""><dc:format>image/svg+xml</dc:format><dc:type
         rdf:resource="http://purl.org/dc/dcmitype/StillImage" /></cc:Work></rdf:RDF></metadata><defs
   id="defs51" /><sodipodi:namedview
   pagecolor="#ffffff"
   bordercolor="#666666"
   borderopacity="1"
   objecttolerance="10"
   gridtolerance="10"
   guidetolerance="10"
   inkscape:pageopacity="0"
   inkscape:pageshadow="2"
   inkscape:window-width="1440"
   inkscape:window-height="852"
   id="namedview49"
   showgrid="false"
   fit-margin-top="0"
   fit-margin-left="0"
   fit-margin-right="0"
   fit-margin-bottom="0"
   inkscape:zoom="1"
   inkscape:cx="101.137"
   inkscape:cy="121.573"
   inkscape:window-x="0"
   inkscape:window-y="0"
   inkscape:window-maximized="1"
   inkscape:current-layer="Layer_1" />
<g
   id="g3"
   transform="translate(-192.863,-116.818)">
	<g
   id="g5">
		<path
   d="m 131.012,-9.684 h 29.481 c 2.245,0 4.295,-0.087 6.103,-0.23 -2.05,-2.47 -4.56,-5.274 -7.49,-8.199 l -31.514,-31.514 c -2.926,-2.931 -8.199,-7.497 -8.199,-7.497 0,0 -0.23,3.858 -0.23,6.104 v 29.48 c 0,6.542 5.308,11.856 11.849,11.856 z"
   id="path7"
   inkscape:connector-curvature="0"
   style="fill:#27a063" />
		<path
   d="m 160.494,-6.735 h -29.481 c -8.159,0 -14.798,-6.64 -14.798,-14.805 v -29.48 c 0,-2.309 0.236,-6.276 0.236,-6.276 l 0.351,-5.965 4.521,3.909 c 0.219,0.19 5.39,4.67 8.354,7.641 l 31.514,31.514 c 2.718,2.713 5.297,5.539 7.676,8.401 l 3.627,4.37 -5.66,0.455 c -1.878,0.149 -4.009,0.236 -6.34,0.236 z"
   id="path9"
   inkscape:connector-curvature="0"
   style="fill:#27a063" />
	</g>
	<g
   id="g11">
		<path
   d="m 160.494,2.045 h -29.481 c -12.973,0 -23.585,-10.606 -23.585,-23.585 v -29.48 c 0,-4.33 0.312,-8.349 0.829,-11.844 H 86.791 -16.392 c -6.541,0 -11.85,5.314 -11.85,11.844 v 218.158 c 0,6.541 5.309,11.856 11.85,11.856 h 176.886 c 6.535,0 11.85,-5.315 11.85,-11.856 V 22.682 1.216 c -3.502,0.518 -7.521,0.829 -11.85,0.829 z"
   id="path13"
   inkscape:connector-curvature="0"
   style="fill:#ffffff" />
		<path
   d="m 98.629,-54.021 c -0.029,0.99 -0.046,1.992 -0.046,3 v 29.48 c 0,17.885 14.55,32.43 32.429,32.43 h 29.481 c 1.007,0 2.009,-0.012 3.005,-0.046 v 11.838 144.456 c 0,1.658 -1.347,3.012 -3.005,3.012 H -16.392 c -1.658,0 -3.006,-1.354 -3.006,-3.012 V -51.021 c 0,-1.658 1.348,-3 3.006,-3 H 86.791 98.629 m 9.627,-8.843 H 86.791 -16.392 c -6.541,0 -11.85,5.314 -11.85,11.844 v 218.158 c 0,6.541 5.309,11.856 11.85,11.856 h 176.886 c 6.535,0 11.85,-5.315 11.85,-11.856 V 22.682 1.216 c -3.501,0.519 -7.521,0.829 -11.85,0.829 h -29.481 c -12.973,0 -23.585,-10.606 -23.585,-23.585 v -29.48 c -10e-4,-4.331 0.311,-8.349 0.828,-11.844 l 0,0 z"
   id="path15"
   inkscape:connector-curvature="0"
   style="fill:#2bb673" />
	</g>
	<g
   id="g17">
		<defs
   id="defs19">
			<path
   id="SVGID_1_"
   d="m 160.494,2.045 h -29.481 c -12.973,0 -23.585,-10.606 -23.585,-23.585 v -29.48 c 0,-4.33 0.312,-8.349 0.829,-11.844 H 86.791 -16.392 c -6.541,0 -11.85,5.314 -11.85,11.844 v 218.158 c 0,6.541 5.309,11.856 11.85,11.856 h 176.886 c 6.535,0 11.85,-5.315 11.85,-11.856 V 22.682 1.216 c -3.502,0.518 -7.521,0.829 -11.85,0.829 z"
   inkscape:connector-curvature="0" />
		</defs>
		<clipPath
   id="SVGID_2_">
			<use
   xlink:href="#SVGID_1_"
   overflow="visible"
   id="use23"
   style="overflow:visible"
   x="0"
   y="0"
   width="588"
   height="475" />
		</clipPath>
		<g
   clip-path="url(#SVGID_2_)"
   id="g25">
			<rect
   x="-28.242001"
   y="-62.863998"
   width="232.89799"
   height="77.380997"
   id="rect27"
   style="fill:#2bb673" />
			<path
   d="M 207.605,17.465 H -31.19 V -65.812 H 207.605 V 17.465 z M -25.294,11.569 H 201.709 V -59.917 H -25.294 v 71.486 z"
   id="path29"
   inkscape:connector-curvature="0"
   style="fill:#2bb673" />
		</g>
	</g>
	<g
   id="g31">
		<path
   d="m 17.004,-31.294 c -0.473,-0.76 -1.06,-1.422 -1.768,-1.998 -0.709,-0.569 -1.509,-1.019 -2.401,-1.341 -0.898,-0.317 -1.831,-0.479 -2.81,-0.479 -1.785,0 -3.3,0.346 -4.549,1.036 -1.244,0.691 -2.258,1.619 -3.035,2.781 -0.771,1.165 -1.335,2.489 -1.691,3.969 -0.352,1.485 -0.53,3.017 -0.53,4.601 0,1.515 0.179,2.988 0.53,4.422 0.356,1.434 0.921,2.724 1.692,3.869 0.777,1.146 1.791,2.062 3.035,2.753 1.249,0.69 2.764,1.036 4.549,1.036 2.43,0 4.324,-0.736 5.688,-2.223 1.364,-1.479 2.199,-3.438 2.505,-5.861 H 25.9 c -0.201,2.257 -0.726,4.295 -1.565,6.115 -0.841,1.819 -1.959,3.368 -3.335,4.652 -1.388,1.278 -3.006,2.257 -4.854,2.931 -1.854,0.674 -3.893,1.008 -6.12,1.008 -2.765,0 -5.246,-0.479 -7.457,-1.439 -2.205,-0.962 -4.065,-2.28 -5.585,-3.968 -1.515,-1.687 -2.678,-3.662 -3.489,-5.941 -0.807,-2.275 -1.21,-4.723 -1.21,-7.354 0,-2.695 0.403,-5.199 1.21,-7.509 0.812,-2.309 1.975,-4.318 3.489,-6.04 1.52,-1.716 3.38,-3.068 5.585,-4.042 2.211,-0.979 4.692,-1.468 7.457,-1.468 1.992,0 3.869,0.287 5.637,0.857 1.773,0.576 3.356,1.411 4.756,2.505 1.394,1.094 2.551,2.453 3.461,4.071 0.909,1.617 1.479,3.472 1.716,5.557 h -7.682 c -0.138,-0.91 -0.438,-1.739 -0.91,-2.5 z"
   id="path33"
   inkscape:connector-curvature="0"
   style="fill:#ffffff" />
		<path
   d="m 37.375,-13.726 c 0.438,0.84 1.02,1.525 1.745,2.044 0.726,0.524 1.578,0.909 2.557,1.163 0.973,0.253 1.986,0.38 3.028,0.38 0.709,0 1.469,-0.058 2.28,-0.179 0.807,-0.115 1.566,-0.346 2.274,-0.68 0.708,-0.34 1.296,-0.8 1.768,-1.393 0.473,-0.588 0.709,-1.336 0.709,-2.246 0,-0.979 -0.312,-1.773 -0.939,-2.378 -0.621,-0.604 -1.439,-1.111 -2.446,-1.515 -1.014,-0.408 -2.16,-0.76 -3.438,-1.064 -1.284,-0.3 -2.58,-0.64 -3.893,-1.008 -1.354,-0.34 -2.666,-0.749 -3.944,-1.238 -1.284,-0.489 -2.43,-1.123 -3.438,-1.9 -1.014,-0.771 -1.831,-1.744 -2.453,-2.902 -0.628,-1.162 -0.938,-2.573 -0.938,-4.226 0,-1.849 0.397,-3.461 1.191,-4.825 0.789,-1.365 1.826,-2.505 3.109,-3.415 1.278,-0.909 2.729,-1.583 4.348,-2.021 1.619,-0.438 3.236,-0.656 4.854,-0.656 1.883,0 3.696,0.213 5.43,0.633 1.738,0.421 3.281,1.105 4.629,2.044 1.348,0.944 2.419,2.148 3.207,3.616 0.795,1.469 1.192,3.248 1.192,5.332 h -7.688 c -0.068,-1.076 -0.293,-1.969 -0.679,-2.678 -0.392,-0.708 -0.904,-1.261 -1.544,-1.67 -0.639,-0.402 -1.376,-0.69 -2.199,-0.857 -0.829,-0.167 -1.728,-0.254 -2.706,-0.254 -0.64,0 -1.278,0.069 -1.917,0.202 -0.646,0.138 -1.227,0.374 -1.745,0.708 -0.524,0.34 -0.956,0.76 -1.29,1.267 -0.34,0.501 -0.507,1.146 -0.507,1.917 0,0.709 0.133,1.285 0.403,1.723 0.27,0.438 0.801,0.84 1.595,1.215 0.789,0.368 1.883,0.736 3.282,1.111 1.399,0.368 3.23,0.84 5.487,1.416 0.674,0.133 1.606,0.374 2.805,0.731 1.197,0.351 2.384,0.915 3.563,1.692 1.181,0.777 2.2,1.814 3.058,3.109 0.864,1.296 1.29,2.96 1.29,4.98 0,1.653 -0.316,3.185 -0.956,4.602 -0.645,1.41 -1.595,2.637 -2.861,3.662 -1.261,1.03 -2.827,1.83 -4.698,2.4 -1.872,0.576 -4.037,0.858 -6.495,0.858 -1.992,0 -3.922,-0.242 -5.793,-0.731 -1.865,-0.489 -3.518,-1.256 -4.952,-2.298 -1.434,-1.048 -2.567,-2.378 -3.414,-3.995 -0.841,-1.619 -1.244,-3.536 -1.209,-5.765 h 7.681 c 10e-4,1.218 0.22,2.249 0.657,3.089 z"
   id="path35"
   inkscape:connector-curvature="0"
   style="fill:#ffffff" />
		<path
   d="M 71.958,-4.83 60.281,-40.927 h 8.137 l 8.038,25.381 h 0.104 l 8.136,-25.381 h 8.188 L 80.907,-4.83 h -8.949 z"
   id="path37"
   inkscape:connector-curvature="0"
   style="fill:#ffffff" />
	</g>
	<path
   d="m 136.983,52.105 v 79.599 H 8.257 V 52.105 h 128.726 m 5.896,-5.896 H 2.362 V 137.6 H 142.88 V 46.209 l -0.001,0 z"
   id="path39"
   inkscape:connector-curvature="0"
   style="fill:#d1d3d4" />
	<rect
   x="2.362"
   y="75.320999"
   width="137.086"
   height="5.8959999"
   id="rect41"
   style="fill:#d1d3d4" />
	<rect
   x="2.362"
   y="103.328"
   width="137.086"
   height="5.8959999"
   id="rect43"
   style="fill:#d1d3d4" />
	<rect
   x="94.512001"
   y="47.233002"
   width="5.8959999"
   height="89.18"
   id="rect45"
   style="fill:#d1d3d4" />
	<rect
   x="47.297001"
   y="47.233002"
   width="5.8959999"
   height="89.18"
   id="rect47"
   style="fill:#d1d3d4" />
</g>
</svg>