<?xml version="1.0" encoding="UTF-8" standalone="no"?>
<!-- Generator: Adobe Illustrator 15.1.0, SVG Export Plug-In . SVG Version: 6.00 Build 0)  -->

<svg
   xmlns:dc="http://purl.org/dc/elements/1.1/"
   xmlns:cc="http://creativecommons.org/ns#"
   xmlns:rdf="http://www.w3.org/1999/02/22-rdf-syntax-ns#"
   xmlns:svg="http://www.w3.org/2000/svg"
   xmlns="http://www.w3.org/2000/svg"
   xmlns:xlink="http://www.w3.org/1999/xlink"
   xmlns:sodipodi="http://sodipodi.sourceforge.net/DTD/sodipodi-0.dtd"
   xmlns:inkscape="http://www.inkscape.org/namespaces/inkscape"
   version="1.1"
   id="Layer_1"
   x="0px"
   y="0px"
   width="200.73599"
   height="242.255"
   viewBox="-221.105 -180.079 200.73599 242.255"
   enable-background="new -221.105 -180.079 588 475"
   xml:space="preserve"
   inkscape:version="0.48.2 r9819"
   sodipodi:docname="export_pdf.svg"><metadata
   id="metadata63"><rdf:RDF><cc:Work
       rdf:about=""><dc:format>image/svg+xml</dc:format><dc:type
         rdf:resource="http://purl.org/dc/dcmitype/StillImage" /></cc:Work></rdf:RDF></metadata><defs
   id="defs61" /><sodipodi:namedview
   pagecolor="#ffffff"
   bordercolor="#666666"
   borderopacity="1"
   objecttolerance="10"
   gridtolerance="10"
   guidetolerance="10"
   inkscape:pageopacity="0"
   inkscape:pageshadow="2"
   inkscape:window-width="640"
   inkscape:window-height="480"
   id="namedview59"
   showgrid="false"
   fit-margin-top="0"
   fit-margin-left="0"
   fit-margin-right="0"
   fit-margin-bottom="0"
   inkscape:zoom="0.49684211"
   inkscape:cx="115.81"
   inkscape:cy="127.131"
   inkscape:window-x="0"
   inkscape:window-y="0"
   inkscape:window-maximized="0"
   inkscape:current-layer="Layer_1" />
<g
   id="g3"
   transform="translate(-178.19,-122.376)">
	<path
   d="M 145.821,-1.178 H 116.34 c -8.159,0 -14.798,-6.639 -14.798,-14.804 v -29.48 c 0,-2.31 0.236,-6.276 0.236,-6.276 l 0.352,-5.965 4.52,3.91 c 0.219,0.19 5.39,4.67 8.354,7.641 l 31.514,31.514 c 2.718,2.712 5.298,5.539 7.676,8.401 l 3.627,4.371 -5.66,0.455 c -1.878,0.147 -4.008,0.233 -6.34,0.233 z"
   id="path5"
   inkscape:connector-curvature="0"
   style="fill:#d83632" />
	<g
   id="g7">
		<path
   d="M 145.821,7.604 H 116.34 c -12.973,0 -23.584,-10.606 -23.584,-23.585 v -29.48 c 0,-4.33 0.311,-8.35 0.829,-11.845 H 72.119 -31.065 c -6.541,0 -11.85,5.315 -11.85,11.845 v 218.158 c 0,6.541 5.309,11.855 11.85,11.855 h 176.886 c 6.535,0 11.85,-5.314 11.85,-11.855 V 28.24 6.774 c -3.502,0.518 -7.52,0.83 -11.85,0.83 z"
   id="path9"
   inkscape:connector-curvature="0"
   style="fill:#ffffff" />
		<path
   d="m 83.957,-48.462 c -0.028,0.99 -0.046,1.992 -0.046,3 v 29.48 c 0,17.885 14.551,32.429 32.429,32.429 h 29.481 c 1.008,0 2.01,-0.017 3.006,-0.046 V 28.24 172.696 c 0,1.658 -1.348,3.012 -3.006,3.012 H -31.065 c -1.658,0 -3.006,-1.354 -3.006,-3.012 V -45.462 c 0,-1.653 1.348,-3 3.006,-3 H 72.119 83.957 m 9.627,-8.845 H 72.119 -31.065 c -6.541,0 -11.85,5.315 -11.85,11.845 v 218.158 c 0,6.541 5.309,11.855 11.85,11.855 h 176.886 c 6.535,0 11.85,-5.314 11.85,-11.855 V 28.24 6.774 c -3.501,0.518 -7.52,0.829 -11.85,0.829 H 116.34 c -12.973,0 -23.584,-10.606 -23.584,-23.585 v -29.48 c -0.001,-4.33 0.31,-8.35 0.828,-11.845 l 0,0 z"
   id="path11"
   inkscape:connector-curvature="0"
   style="fill:#ef4136" />
	</g>
	<g
   id="g13">
		<defs
   id="defs15">
			<path
   id="SVGID_1_"
   d="M 145.821,7.604 H 116.34 c -12.973,0 -23.584,-10.606 -23.584,-23.585 v -29.48 c 0,-4.33 0.311,-8.35 0.829,-11.845 H 72.119 -31.065 c -6.541,0 -11.85,5.315 -11.85,11.845 v 218.158 c 0,6.541 5.309,11.855 11.85,11.855 h 176.886 c 6.535,0 11.85,-5.314 11.85,-11.855 V 28.24 6.774 c -3.502,0.518 -7.52,0.83 -11.85,0.83 z"
   inkscape:connector-curvature="0" />
		</defs>
		<clipPath
   id="SVGID_2_">
			<use
   xlink:href="#SVGID_1_"
   overflow="visible"
   id="use19"
   style="overflow:visible"
   x="0"
   y="0"
   width="588"
   height="475" />
		</clipPath>
		<g
   clip-path="url(#SVGID_2_)"
   id="g21">
			<rect
   x="-42.915001"
   y="-57.306999"
   width="232.89799"
   height="77.382004"
   id="rect23"
   style="fill:#ef4136" />
			<path
   d="M 192.932,23.023 H -45.863 V -60.255 H 192.932 V 23.023 z M -39.967,17.127 H 187.036 V -54.358 H -39.967 v 71.485 z"
   id="path25"
   inkscape:connector-curvature="0"
   style="fill:#ef4136" />
		</g>
	</g>
	<g
   id="g27">
		<path
   d="m -4.572,-34.942 c 2.234,0 4.134,0.328 5.694,0.973 1.566,0.651 2.845,1.508 3.824,2.574 0.984,1.065 1.698,2.28 2.147,3.65 0.449,1.365 0.674,2.781 0.674,4.244 0,1.434 -0.225,2.838 -0.674,4.221 -0.449,1.382 -1.163,2.608 -2.147,3.673 -0.979,1.065 -2.257,1.923 -3.824,2.574 -1.56,0.65 -3.46,0.973 -5.694,0.973 h -8.24 V 0.729 h -7.842 v -35.671 h 16.082 z m -2.148,16.784 c 0.898,0 1.768,-0.063 2.597,-0.196 0.835,-0.133 1.566,-0.392 2.2,-0.777 0.633,-0.38 1.14,-0.921 1.526,-1.624 0.38,-0.696 0.576,-1.612 0.576,-2.746 0,-1.135 -0.196,-2.05 -0.576,-2.747 -0.386,-0.702 -0.893,-1.243 -1.526,-1.624 -0.633,-0.386 -1.365,-0.639 -2.2,-0.777 -0.829,-0.132 -1.698,-0.196 -2.597,-0.196 h -6.092 v 10.687 h 6.092 z"
   id="path29"
   inkscape:connector-curvature="0"
   style="fill:#ffffff" />
		<path
   d="m 28.052,-34.942 c 2.297,0 4.439,0.369 6.42,1.1 1.98,0.731 3.696,1.831 5.142,3.3 1.451,1.462 2.585,3.293 3.397,5.493 0.817,2.199 1.226,4.779 1.226,7.744 0,2.597 -0.334,4.998 -1.002,7.191 -0.662,2.2 -1.669,4.1 -3.017,5.695 -1.354,1.601 -3.035,2.855 -5.05,3.771 -2.016,0.921 -4.388,1.376 -7.117,1.376 H 12.667 V -34.943 H 28.052 z M 27.5,-5.864 c 1.134,0 2.234,-0.185 3.299,-0.553 1.065,-0.363 2.015,-0.974 2.85,-1.82 0.829,-0.852 1.497,-1.958 1.998,-3.322 0.495,-1.365 0.749,-3.035 0.749,-4.998 0,-1.796 -0.178,-3.42 -0.524,-4.871 -0.351,-1.445 -0.927,-2.689 -1.728,-3.72 -0.794,-1.031 -1.854,-1.826 -3.172,-2.373 -1.313,-0.553 -2.937,-0.829 -4.866,-0.829 H 20.509 V -5.865 H 27.5 z"
   id="path31"
   inkscape:connector-curvature="0"
   style="fill:#ffffff" />
		<path
   d="m 74.761,-34.942 v 6.593 H 57.527 v 8.246 h 14.936 v 6.098 H 57.527 V 0.729 h -7.842 v -35.671 h 25.076 z"
   id="path33"
   inkscape:connector-curvature="0"
   style="fill:#ffffff" />
	</g>
	<rect
   x="-14.378"
   y="44.408001"
   width="66.804001"
   height="12.771"
   id="rect35"
   style="fill:#d1d3d4" />
	<rect
   x="-14.378"
   y="68.015999"
   width="66.804001"
   height="12.771"
   id="rect37"
   style="fill:#d1d3d4" />
	<rect
   x="-14.378"
   y="91.612"
   width="66.804001"
   height="12.771"
   id="rect39"
   style="fill:#d1d3d4" />
	<rect
   x="-14.378"
   y="115.209"
   width="66.804001"
   height="12.771"
   id="rect41"
   style="fill:#d1d3d4" />
	<rect
   x="-14.378"
   y="138.81599"
   width="66.804001"
   height="12.771"
   id="rect43"
   style="fill:#d1d3d4" />
	<rect
   x="62.324001"
   y="44.408001"
   width="66.805"
   height="12.771"
   id="rect45"
   style="fill:#d1d3d4" />
	<rect
   x="62.324001"
   y="68.015999"
   width="66.805"
   height="12.771"
   id="rect47"
   style="fill:#d1d3d4" />
	<rect
   x="62.324001"
   y="91.612"
   width="66.805"
   height="59.976002"
   id="rect49"
   style="fill:#d1d3d4" />
	<g
   id="g51">
		<path
   d="m -4.543,-35.374 c 2.257,0 4.18,0.334 5.764,0.99 1.584,0.656 2.873,1.52 3.863,2.603 0.996,1.083 1.722,2.314 2.177,3.697 0.455,1.382 0.68,2.81 0.68,4.295 0,1.451 -0.225,2.867 -0.68,4.272 -0.455,1.394 -1.181,2.637 -2.177,3.708 -0.99,1.083 -2.28,1.946 -3.863,2.603 -1.583,0.657 -3.507,0.99 -5.764,0.99 h -8.344 V 0.729 h -7.934 v -36.103 h 16.278 z m -2.177,16.986 c 0.91,0 1.791,-0.058 2.631,-0.196 0.841,-0.138 1.583,-0.403 2.223,-0.783 0.639,-0.392 1.157,-0.933 1.543,-1.646 0.386,-0.703 0.581,-1.635 0.581,-2.775 0,-1.151 -0.195,-2.073 -0.581,-2.787 -0.386,-0.702 -0.904,-1.255 -1.543,-1.635 -0.639,-0.392 -1.382,-0.657 -2.223,-0.783 -0.84,-0.139 -1.722,-0.208 -2.631,-0.208 h -6.167 v 10.813 h 6.167 z"
   id="path53"
   inkscape:connector-curvature="0"
   style="fill:#ffffff" />
		<path
   d="m 28.467,-35.374 c 2.326,0 4.491,0.38 6.495,1.117 2.004,0.737 3.743,1.854 5.205,3.339 1.468,1.486 2.614,3.328 3.438,5.562 0.83,2.223 1.244,4.837 1.244,7.831 0,2.626 -0.339,5.056 -1.013,7.278 -0.674,2.222 -1.693,4.146 -3.058,5.77 -1.365,1.612 -3.069,2.89 -5.107,3.812 -2.039,0.933 -4.439,1.394 -7.204,1.394 h -15.57 v -36.103 h 15.57 z m -0.559,29.423 c 1.146,0 2.257,-0.184 3.34,-0.553 1.077,-0.368 2.039,-0.99 2.879,-1.842 0.846,-0.864 1.52,-1.981 2.021,-3.363 0.507,-1.382 0.76,-3.063 0.76,-5.056 0,-1.819 -0.179,-3.466 -0.53,-4.929 -0.352,-1.462 -0.933,-2.718 -1.745,-3.766 -0.806,-1.048 -1.877,-1.843 -3.208,-2.407 -1.335,-0.553 -2.977,-0.829 -4.929,-0.829 H 20.83 v 22.744 h 7.078 z"
   id="path55"
   inkscape:connector-curvature="0"
   style="fill:#ffffff" />
		<path
   d="m 75.735,-35.374 v 6.679 H 58.293 v 8.337 h 15.114 v 6.173 H 58.293 V 0.729 h -7.935 v -36.103 h 25.377 z"
   id="path57"
   inkscape:connector-curvature="0"
   style="fill:#ffffff" />
	</g>
</g>
</svg>